# xmcd CD database file
#
# Track frame offsets:
#	150
#	22700
#	73267
#	89002
#	118552
#	147844
#	196544
#
# Disc length: 2988 seconds
#
# Revision: 0
# Processed by: cddbd v1.5.2PL0 Copyright (c) Steve Scherf et al.
# Submitted via: CDex 1.51
#
DISCID=570baa07
DTITLE=Republic Bank Angel Harps Steel Orchestra - Okunaya: Angel Harps Collection Volume II
DYEAR=2017
DGENRE=Rhythmic Soul
TTITLE0=Morning Dance
TTITLE1=Okunaya
TTITLE2=Song for my Father
TTITLE3=Unforgettable
TTITLE4=All night long
TTITLE5=Engine Room on Fire
TTITLE6=The Girl is Mine
EXTD=YEAR: 2017
EXTT0=
EXTT1=
EXTT2=
EXTT3=
EXTT4=
EXTT5=
EXTT6=
PLAYORDER=
